HIERARCHY
ROOT Hips
{
	OFFSET 0.00000 0.00000 0.00000
	CHANNELS 6 Xposition Yposition Zposition Zrotation Yrotation Xrotation 
	JOINT LHipJoint
	{
		OFFSET 0 0 0
		CHANNELS 3 Zrotation Yrotation Xrotation
		JOINT LeftUpLeg
		{
			OFFSET 1.58161 -1.81893 0.78828
			CHANNELS 3 Zrotation Yrotation Xrotation
			JOINT LeftLeg
			{
				OFFSET 2.53374 -6.96141 0.00000
				CHANNELS 3 Zrotation Yrotation Xrotation
				JOINT LeftFoot
				{
					OFFSET 2.63509 -7.23986 0.00000
					CHANNELS 3 Zrotation Yrotation Xrotation
					JOINT LeftToeBase
					{
						OFFSET 0.14115 -0.38781 2.05350
						CHANNELS 3 Zrotation Yrotation Xrotation
						End Site
						{
							OFFSET 0.00000 -0.00000 1.05543
						}
					}
				}
			}
		}
	}
	JOINT RHipJoint
	{
		OFFSET 0 0 0
		CHANNELS 3 Zrotation Yrotation Xrotation
		JOINT RightUpLeg
		{
			OFFSET -1.11138 -1.81893 0.78828
			CHANNELS 3 Zrotation Yrotation Xrotation
			JOINT RightLeg
			{
				OFFSET -2.58392 -7.09926 0.00000
				CHANNELS 3 Zrotation Yrotation Xrotation
				JOINT RightFoot
				{
					OFFSET -2.66423 -7.31992 0.00000
					CHANNELS 3 Zrotation Yrotation Xrotation
					JOINT RightToeBase
					{
						OFFSET -0.18831 -0.51739 2.12114
						CHANNELS 3 Zrotation Yrotation Xrotation
						End Site
						{
							OFFSET -0.00000 -0.00000 1.09845
						}
					}
				}
			}
		}
	}
	JOINT LowerBack
	{
		OFFSET 0 0 0
		CHANNELS 3 Zrotation Yrotation Xrotation
		JOINT Spine
		{
			OFFSET -0.01511 1.97958 -0.08829
			CHANNELS 3 Zrotation Yrotation Xrotation
			JOINT Spine1
			{
				OFFSET 0.08344 1.97334 -0.04330
				CHANNELS 3 Zrotation Yrotation Xrotation
				JOINT Neck
				{
					OFFSET 0 0 0
					CHANNELS 3 Zrotation Yrotation Xrotation
					JOINT Neck1
					{
						OFFSET 0.00559 1.76246 0.31246
						CHANNELS 3 Zrotation Yrotation Xrotation
						JOINT Head
						{
							OFFSET -0.07011 1.80354 -0.30524
							CHANNELS 3 Zrotation Yrotation Xrotation
							End Site
							{
								OFFSET -0.02385 1.83547 -0.13906
							}
						}
					}
				}
				JOINT LeftShoulder
				{
					OFFSET 0 0 0
					CHANNELS 3 Zrotation Yrotation Xrotation
					JOINT LeftArm
					{
						OFFSET 3.20667 1.30156 -0.60240
						CHANNELS 3 Zrotation Yrotation Xrotation
						JOINT LeftForeArm
						{
							OFFSET 4.95663 -0.00000 0.00000
							CHANNELS 3 Zrotation Yrotation Xrotation
							JOINT LeftHand
							{
								OFFSET 3.38177 -0.00000 0.00000
								CHANNELS 3 Zrotation Yrotation Xrotation
								JOINT LeftFingerBase
								{
									OFFSET 0 0 0
									CHANNELS 3 Zrotation Yrotation Xrotation
									JOINT LeftHandIndex1
									{
										OFFSET 0.66291 -0.00000 0.00000
										CHANNELS 3 Zrotation Yrotation Xrotation
										End Site
										{
											OFFSET 0.53445 -0.00000 0.00000
										}
									}
								}
								JOINT LThumb
								{
									OFFSET 0 0 0
									CHANNELS 3 Zrotation Yrotation Xrotation
									End Site
									{
										OFFSET 0.54261 -0.00000 0.54261
									}
								}
							}
						}
					}
				}
				JOINT RightShoulder
				{
					OFFSET 0 0 0
					CHANNELS 3 Zrotation Yrotation Xrotation
					JOINT RightArm
					{
						OFFSET -3.06877 1.34672 -0.60964
						CHANNELS 3 Zrotation Yrotation Xrotation
						JOINT RightForeArm
						{
							OFFSET -5.08365 -0.00000 0.00000
							CHANNELS 3 Zrotation Yrotation Xrotation
							JOINT RightHand
							{
								OFFSET -3.35984 -0.00000 0.00000
								CHANNELS 3 Zrotation Yrotation Xrotation
								JOINT RightFingerBase
								{
									OFFSET 0 0 0
									CHANNELS 3 Zrotation Yrotation Xrotation
									JOINT RightHandIndex1
									{
										OFFSET -0.82076 -0.00000 0.00000
										CHANNELS 3 Zrotation Yrotation Xrotation
										End Site
										{
											OFFSET -0.66172 -0.00000 0.00000
										}
									}
								}
								JOINT RThumb
								{
									OFFSET 0 0 0
									CHANNELS 3 Zrotation Yrotation Xrotation
									End Site
									{
										OFFSET -0.67182 -0.00000 0.67182
									}
								}
							}
						}
					}
				}
			}
		}
	}
}
MOTION
Frames: 16
Frame Time: .0083333
-11.112 17.8811 4.7099 0 0 0 0 0 0 -21 0 0 0 0 0 0 0 0 0 0 0 0 0 0 21 0 0 0 0 0 0 0 0 0 0 0 0 0 0 0 0 0 0 0 0 0 0 -16 0 0 21 0 0 11 0 0 0 -8 0 0 0 0 0 0 0 0 0 0 0 0 0 0 0 0 0 0 0 0 8 0 0 0 0 0 0 0 0 0 0 0 0 0 0 0 0 0
-11.1120 17.8811 4.7099 -26.9126 82.6769 -8.2220 0.0000 0.0000 0.0000 -6.6841 -5.6290 -33.4612 2.1937 9.2584 26.6072 0.2098 -4.7940 -8.3067 0.5479 -4.7422 -13.1747 0.0000 0.0000 0.0000 12.4462 8.8793 -34.5716 -2.7019 -10.1961 29.6142 -0.2187 -1.6126 -9.5766 -0.1545 2.5330 -6.9811 -2.2143 1.5047 4.8410 3.9817 2.0472 5.3895 5.3247 0.9458 2.6377 1.5051 -1.0906 -13.5050 -5.2278 2.2167 41.0840 -2.0853 1.0093 17.4540 -0.0000 -0.0000 0.0000 -99.3962 -22.5733 79.1761 26.3736 -37.5753 -9.1145 -0.0000 0.0000 -51.1222 32.4093 63.8113 29.6691 -7.1250 0.0000 -0.0000 171.1619 7.6506 7.6771 -0.0000 -0.0000 0.0000 93.8567 17.7616 55.8432 -27.2819 38.4467 -9.6739 0.0000 -0.0000 -51.4960 -28.1957 -6.9077 3.6891 7.1250 -0.0000 -0.0000 -1.2170 -37.8041 -0.2156
-11.1110 17.8759 4.7111 -26.9683 82.6524 -8.2804 0.0000 0.0000 0.0000 -6.7703 -5.4733 -33.5473 2.1804 9.2321 26.5240 0.2110 -4.5149 -8.2831 0.7227 -5.4323 -15.1457 0.0000 0.0000 0.0000 12.4660 8.8760 -34.6373 -2.7224 -10.2316 29.7299 -0.2198 -1.6050 -9.5934 -0.1594 2.5727 -7.0912 -2.2514 1.5041 4.8374 4.0084 2.0457 5.3958 5.3744 0.9434 2.6447 1.4823 -1.0851 -13.4994 -5.2389 2.2376 41.0832 -2.0824 1.0128 17.4536 -0.0000 0.0000 0.0000 -99.3941 -22.6072 79.2089 26.4114 -37.6121 -9.1376 -0.0000 0.0000 -51.2594 32.3623 63.8796 29.6390 -7.1250 0.0000 -0.0000 171.1263 7.7023 7.6997 -0.0000 0.0000 0.0000 93.8991 17.7916 55.7706 -27.2206 38.3888 -9.6358 0.0000 -0.0000 -51.2786 -28.0825 -6.9150 3.6755 7.1250 -0.0000 -0.0000 -1.1196 -37.8045 -0.1984
-11.1099 17.8726 4.7109 -27.2620 82.6176 -8.5479 0.0000 0.0000 0.0000 -6.8475 -5.2588 -33.7125 2.1829 9.2370 26.5395 0.2035 -4.5342 -8.1501 0.8507 -5.8825 -16.4439 0.0000 0.0000 0.0000 12.5006 8.9210 -34.6680 -2.7287 -10.2423 29.7649 -0.2215 -1.6276 -9.6409 -0.1491 2.4886 -6.8579 -2.1985 1.5245 4.8005 4.0227 2.0744 5.4016 5.3597 0.9588 2.6692 1.4722 -1.1133 -13.4883 -5.2424 2.1962 41.0640 -2.0889 0.9940 17.4370 0.0000 0.0000 0.0000 -99.3992 -22.6295 79.2989 26.4531 -37.6526 -9.1630 -0.0000 0.0000 -51.4266 32.6917 63.8911 29.9547 -7.1250 0.0000 -0.0000 171.2057 7.7816 7.6152 0.0000 0.0000 0.0000 93.8778 17.8182 55.7507 -27.2079 38.3767 -9.6279 0.0000 -0.0000 -51.2058 -28.1440 -6.8975 3.6758 7.1250 -0.0000 -0.0000 -1.1730 -37.7890 -0.2083
-11.1093 17.8718 4.7089 -27.1022 82.6288 -8.3785 0.0000 0.0000 0.0000 -6.8903 -5.2415 -33.7412 2.1845 9.2402 26.5498 0.2003 -4.6265 -8.1071 0.8352 -5.8299 -16.2916 0.0000 0.0000 0.0000 12.4850 8.8383 -34.7180 -2.7344 -10.2522 29.7973 -0.2259 -1.5188 -9.6666 -0.1574 2.5565 -7.0464 -2.1381 1.5583 4.8020 3.9838 2.1208 5.3978 5.2826 0.9847 2.6622 1.4889 -1.1464 -13.5250 -5.1872 2.1225 41.1036 -2.0810 0.9749 17.4635 0.0000 -0.0000 0.0000 -99.3688 -22.6109 79.4079 26.4436 -37.6434 -9.1572 -0.0000 0.0000 -51.3472 32.4692 63.7747 29.7184 -7.1250 0.0000 -0.0000 171.1906 7.6301 7.6552 0.0000 -0.0000 0.0000 93.8607 17.8193 55.6848 -27.2181 38.3864 -9.6343 0.0000 -0.0000 -51.2184 -28.1629 -6.8972 3.6785 7.1250 -0.0000 -0.0000 -1.1892 -37.7900 -0.2111
-11.1094 17.8709 4.7077 -26.9205 82.6540 -8.1991 0.0000 0.0000 0.0000 -6.9240 -5.2741 -33.7580 2.1901 9.2513 26.5845 0.2028 -4.6132 -8.1499 0.8520 -5.8869 -16.4567 0.0000 0.0000 0.0000 12.4700 8.7497 -34.7495 -2.7362 -10.2552 29.8070 -0.2273 -1.4405 -9.6502 -0.1707 2.6615 -7.3378 -2.1098 1.5833 4.8247 3.9483 2.1547 5.3943 5.2272 1.0034 2.6441 1.5225 -1.1651 -13.5877 -5.1595 2.0813 41.1698 -2.0841 0.9681 17.5150 -0.0000 0.0000 0.0000 -99.3227 -22.6178 79.5212 26.4218 -37.6222 -9.1439 -0.0000 0.0000 -51.2119 31.9512 63.7180 29.2144 -7.1250 0.0000 -0.0000 171.0776 7.4711 7.7840 -0.0000 0.0000 0.0000 93.8679 17.8475 55.6214 -27.2231 38.3911 -9.6373 0.0000 -0.0000 -51.2793 -28.1446 -6.8830 3.6682 7.1250 -0.0000 -0.0000 -1.1740 -37.7727 -0.2089
-11.1100 17.8706 4.7088 -27.5569 82.6464 -8.8423 0.0000 0.0000 0.0000 -6.8330 -5.2588 -33.7707 2.1944 9.2599 26.6116 0.2017 -4.6526 -8.1370 0.7988 -5.7047 -15.9299 0.0000 0.0000 0.0000 12.5532 8.7958 -34.7203 -2.7369 -10.2565 29.8114 -0.2249 -1.5009 -9.6372 -0.1582 2.5626 -7.0632 -1.9914 1.6079 4.8656 3.9378 2.1911 5.3956 5.1462 1.0265 2.6226 1.6118 -1.1770 -13.5850 -5.1843 2.0428 41.1582 -2.1183 0.9633 17.5056 0.0000 -0.0000 0.0000 -99.2257 -22.6503 79.7224 26.4625 -37.6618 -9.1688 -0.0000 0.0000 -51.2804 31.9069 63.7069 29.1701 -7.1250 0.0000 -0.0000 171.0695 7.4520 7.7946 0.0000 -0.0000 0.0000 93.9314 17.8692 55.5867 -27.2283 38.3960 -9.6406 0.0000 -0.0000 -51.3972 -28.3523 -6.8300 3.6718 7.1250 -0.0000 -0.0000 -1.3539 -37.7270 -0.2424
-11.1100 17.8707 4.7098 -27.7985 82.6258 -9.0746 0.0000 0.0000 0.0000 -6.8004 -5.2079 -33.7991 2.1962 9.2633 26.6225 0.2004 -4.6950 -8.1207 0.7491 -5.5284 -15.4219 0.0000 0.0000 0.0000 12.5840 8.8602 -34.7205 -2.7386 -10.2593 29.8207 -0.2225 -1.5489 -9.6150 -0.1622 2.5950 -7.1530 -1.9124 1.6281 4.8865 3.9100 2.2201 5.3917 5.0703 1.0443 2.6071 1.6831 -1.1772 -13.5569 -5.1742 2.0099 41.1273 -2.1315 0.9621 17.4781 0.0000 0.0000 0.0000 -99.1104 -22.6697 79.8679 26.5244 -37.7219 -9.2067 -0.0000 0.0000 -51.4067 31.9703 63.6803 29.2246 -7.1250 0.0000 -0.0000 171.0958 7.4410 7.7730 0.0000 0.0000 0.0000 94.0065 17.8610 55.5754 -27.2444 38.4113 -9.6506 0.0000 -0.0000 -51.5037 -28.5686 -6.7207 3.6461 7.1250 -0.0000 -0.0000 -1.5427 -37.6178 -0.2804
-11.1091 17.8713 4.7108 -27.3664 82.6065 -8.6190 0.0000 0.0000 0.0000 -6.8441 -5.2020 -33.8141 2.1956 9.2622 26.6191 0.2052 -4.6363 -8.1963 0.8138 -5.7565 -16.0794 0.0000 0.0000 0.0000 12.5334 8.8916 -34.7677 -2.7410 -10.2636 29.8345 -0.2191 -1.5832 -9.5671 -0.2077 2.9346 -8.0968 -1.9903 1.6381 4.8593 3.9034 2.2308 5.3867 5.1081 1.0468 2.6138 1.6800 -1.1757 -13.5473 -5.1546 2.0043 41.1255 -2.1228 0.9619 17.4737 -0.0000 -0.0000 0.0000 -99.1048 -22.6793 79.8525 26.5332 -37.7304 -9.2120 -0.0000 0.0000 -51.4315 31.9382 63.6657 29.1911 -7.1250 0.0000 -0.0000 171.0920 7.4212 7.7799 -0.0000 -0.0000 0.0000 93.9851 17.8601 55.6263 -27.2689 38.4344 -9.6658 0.0000 -0.0000 -51.5892 -28.6091 -6.6929 3.6372 7.1250 -0.0000 -0.0000 -1.5782 -37.5889 -0.2880
-11.1083 17.8717 4.7104 -27.2821 82.6195 -8.5256 0.0000 0.0000 0.0000 -6.8604 -5.2087 -33.8185 2.1938 9.2585 26.6074 0.2055 -4.6281 -8.2016 0.8617 -5.9196 -16.5512 0.0000 0.0000 0.0000 12.5233 8.8693 -34.7950 -2.7434 -10.2677 29.8480 -0.2173 -1.6137 -9.5489 -0.2313 3.0954 -8.5445 -2.0353 1.6302 4.8580 3.9219 2.2189 5.3806 5.1533 1.0393 2.6075 1.6628 -1.1714 -13.5559 -5.1472 2.0177 41.1505 -2.1146 0.9662 17.4911 -0.0000 -0.0000 0.0000 -99.1560 -22.6879 79.8179 26.5124 -37.7102 -9.1993 -0.0000 0.0000 -51.4263 31.8892 63.5269 29.1154 -7.1250 0.0000 -0.0000 171.1278 7.2856 7.7716 -0.0000 -0.0000 0.0000 93.9359 17.8703 55.6529 -27.2674 38.4330 -9.6649 0.0000 -0.0000 -51.5256 -28.5411 -6.8174 3.6940 7.1250 -0.0000 -0.0000 -1.5161 -37.7255 -0.2716
-11.1088 17.8706 4.7070 -27.4477 82.7036 -8.7069 0.0000 0.0000 0.0000 -6.8869 -5.2515 -33.8147 2.1915 9.2541 26.5934 0.1999 -4.6844 -8.1086 0.8673 -5.9381 -16.6049 0.0000 0.0000 0.0000 12.5032 8.8043 -34.7776 -2.7444 -10.2693 29.8533 -0.2204 -1.6003 -9.6040 -0.1963 2.8532 -7.8703 -1.9503 1.6060 4.9262 3.9012 2.1894 5.3662 5.0815 1.0288 2.5607 1.6367 -1.1871 -13.5857 -5.0889 1.9884 41.2173 -2.0902 0.9595 17.5345 0.0000 -0.0000 0.0000 -99.1461 -22.6861 79.8564 26.5352 -37.7323 -9.2133 -0.0000 0.0000 -51.5531 32.1546 63.4451 29.3495 -7.1250 0.0000 -0.0000 171.2254 7.2669 7.6872 0.0000 -0.0000 0.0000 93.9495 17.8708 55.6149 -27.2779 38.4429 -9.6714 0.0000 -0.0000 -51.4867 -28.5567 -6.8971 3.7393 7.1250 -0.0000 -0.0000 -1.5269 -37.8169 -0.2701
-11.1089 17.8699 4.7065 -27.6531 82.7142 -8.9273 0.0000 0.0000 0.0000 -6.8655 -5.2717 -33.7910 2.1904 9.2519 26.5864 0.1990 -4.6718 -8.0898 0.8769 -5.9702 -16.6979 0.0000 0.0000 0.0000 12.4976 8.8401 -34.7317 -2.7434 -10.2676 29.8476 -0.2263 -1.5675 -9.7008 -0.1495 2.4920 -6.8675 -1.9126 1.6161 4.9675 3.9092 2.2042 5.3624 5.0665 1.0382 2.5330 1.5584 -1.2126 -13.5872 -5.0046 1.9472 41.2570 -2.0453 0.9432 17.5535 -0.0000 -0.0000 0.0000 -99.1385 -22.6761 79.9388 26.6092 -37.8039 -9.2585 -0.0000 0.0000 -51.7545 32.7829 63.5907 29.9773 -7.1250 0.0000 -0.0000 171.3372 7.5311 7.5417 -0.0000 -0.0000 0.0000 93.9154 17.8631 55.5811 -27.3001 38.4639 -9.6852 0.0000 -0.0000 -51.4727 -28.5376 -6.9164 3.7467 7.1250 -0.0000 -0.0000 -1.5098 -37.8375 -0.2663
-11.1081 17.8705 4.7091 -27.8877 82.6594 -9.1601 0.0000 0.0000 0.0000 -6.7913 -5.2607 -33.7691 2.1900 9.2511 26.5840 0.2004 -4.6540 -8.1136 0.8394 -5.8441 -16.3327 0.0000 0.0000 0.0000 12.5410 8.9148 -34.7070 -2.7423 -10.2657 29.8415 -0.2286 -1.5774 -9.7508 -0.1392 2.4050 -6.6263 -1.9482 1.6395 4.9457 3.9521 2.2348 5.3802 5.1319 1.0513 2.5580 1.4956 -1.2117 -13.5652 -4.9542 1.9422 41.2208 -2.0102 0.9374 17.5254 -0.0000 0.0000 0.0000 -99.1776 -22.6870 79.9510 26.6191 -37.8135 -9.2646 -0.0000 0.0000 -51.7384 32.7096 63.6734 29.9253 -7.1250 0.0000 -0.0000 171.2887 7.5898 7.5748 -0.0000 0.0000 0.0000 93.8423 17.8903 55.6070 -27.2984 38.4622 -9.6841 0.0000 -0.0000 -51.3218 -28.3716 -7.0132 3.7726 7.1250 -0.0000 -0.0000 -1.3640 -37.9356 -0.2373
-11.1073 17.8713 4.7095 -28.0805 82.6482 -9.3456 0.0000 0.0000 0.0000 -6.7498 -5.2686 -33.7657 2.1898 9.2507 26.5827 0.1999 -4.6617 -8.1049 0.8243 -5.7928 -16.1845 0.0000 0.0000 0.0000 12.5776 8.9246 -34.7095 -2.7414 -10.2642 29.8365 -0.2246 -1.6304 -9.7027 -0.1587 2.5668 -7.0748 -1.9393 1.6297 4.9223 3.9673 2.2224 5.4010 5.1447 1.0445 2.5940 1.4851 -1.1852 -13.5187 -4.9188 1.9592 41.1502 -1.9868 0.9455 17.4726 -0.0000 -0.0000 0.0000 -99.2203 -22.7118 79.8310 26.5614 -37.7577 -9.2293 -0.0000 0.0000 -51.5502 32.3076 63.6897 29.5468 -7.1250 0.0000 -0.0000 171.1795 7.5196 7.6844 -0.0000 -0.0000 0.0000 93.8048 17.9181 55.6933 -27.3322 38.4942 -9.7052 0.0000 -0.0000 -51.2518 -28.2351 -6.9996 3.7440 7.1250 -0.0000 -0.0000 -1.2473 -37.9107 -0.2177
-11.1065 17.8717 4.7077 -28.0327 82.6343 -9.2780 0.0000 0.0000 0.0000 -6.7712 -5.2234 -33.7999 2.1902 9.2514 26.5850 0.1996 -4.6507 -8.0980 0.8368 -5.8355 -16.3080 0.0000 0.0000 0.0000 12.5830 8.8990 -34.7442 -2.7409 -10.2633 29.8337 -0.2202 -1.6291 -9.6146 -0.1869 2.7846 -7.6797 -1.9306 1.6134 4.9063 3.9696 2.2010 5.4100 5.1438 1.0335 2.6147 1.4648 -1.1517 -13.4954 -4.8832 1.9983 41.1284 -1.9591 0.9621 17.4557 -0.0000 -0.0000 0.0000 -99.2520 -22.7304 79.6779 26.5468 -37.7436 -9.2204 -0.0000 0.0000 -51.5014 32.7381 63.8791 29.9963 -7.1250 0.0000 -0.0000 171.2220 7.7807 7.6009 -0.0000 -0.0000 0.0000 93.7642 17.8983 55.7576 -27.3942 38.5525 -9.7438 0.0000 -0.0000 -51.2309 -28.1268 -6.8443 3.6450 7.1250 -0.0000 -0.0000 -1.1603 -37.7279 -0.2077
-11.1057 17.8719 4.7060 -28.0120 82.6436 -9.2375 0.0000 0.0000 0.0000 -6.7787 -5.2383 -33.8203 2.1908 9.2526 26.5887 0.2002 -4.5902 -8.0989 0.8439 -5.8595 -16.3774 0.0000 0.0000 0.0000 12.5899 8.8480 -34.7835 -2.7418 -10.2648 29.8386 -0.2196 -1.5739 -9.5726 -0.1979 2.8649 -7.9028 -1.9237 1.5801 4.9084 3.9786 2.1570 5.4159 5.1509 1.0115 2.6242 1.3850 -1.1292 -13.5666 -4.8530 2.0498 41.1711 -1.9232 0.9734 17.5015 0.0000 -0.0000 0.0000 -99.2592 -22.7639 79.5639 26.5663 -37.7625 -9.2323 -0.0000 0.0000 -51.5731 33.4868 64.0510 30.7467 -7.1250 0.0000 -0.0000 171.3494 8.0945 7.4339 0.0000 -0.0000 0.0000 93.7516 17.8956 55.8076 -27.4104 38.5678 -9.7539 0.0000 -0.0000 -51.1189 -28.0885 -6.7989 3.6152 7.1250 -0.0000 -0.0000 -1.1291 -37.6740 -0.2037
